# xmcd CD database file
# Copyright (C) 1993-1999 CDDB, Inc.
# Track frame offsets: 
# 150
# 14097
# 24697
# 37641
# 45271
# 56204
# 64301
# 77497
# 88368
# 98969
# 
# Disc length: 1414 seconds
# Revision: 1
# Processed by: cddbd v1.5.1PL0 Copyright (c) Steve Scherf et al.
# Submitted via: MusicMatchJukebox 4.35.0018
# 
DISCID=7d05840a
DTITLE=Billie Holiday - Untitled
DYEAR=1900
DGENRE=
TTITLE0=God Bless The Child
TTITLE1=Ain't Nobody's Business
TTITLE2=My Man
TTITLE3=All Of Me
TTITLE4=I Got It Bad And That Ain't Good
TTITLE5=Miss Brown To You
TTITLE6=Billie's Blues
TTITLE7=What A Little Moonlight Can Do
TTITLE8=Lover Come Back To Me
TTITLE9=Moonlight In Vermont
EXTD=
EXTT0=
EXTT1=
EXTT2=
EXTT3=
EXTT4=
EXTT5=
EXTT6=
EXTT7=
EXTT8=
EXTT9=
PLAYORDER=
